PathFileType	3	(X/Y/Z)	D:\Students\303\Renee\Session 1\Renee Cal 01.trc
DataRate	CameraRate	NumFrames	NumMarkers	Units	OrigDataRate	OrigDataStartFrame	OrigNumFrames
100.0	100.0	9	27	mm	100.0	450	599	
Frame#	Time	RASIS			LASIS			RPSIS			LPSIS			RKneeLateral			RKneeMedial			LKneeLateral			LKneeMedial			RAnkleLateral			RAnkleMedial			RShank			RFibula			LAnkleLateral			LAnkleMedial			LShank			LFibula			RMT2			RHeel			RMT5			RToe			LMT2			LHeel			LMT5			LToe			Sternum			LShoulder			RShoulder			
		X1	Y1	Z1	X2	Y2	Z2	X3	Y3	Z3	X4	Y4	Z4	X5	Y5	Z5	X6	Y6	Z6	X7	Y7	Z7	X8	Y8	Z8	X9	Y9	Z9	X10	Y10	Z10	X11	Y11	Z11	X12	Y12	Z12	X13	Y13	Z13	X14	Y14	Z14	X15	Y15	Z15	X16	Y16	Z16	X17	Y17	Z17	X18	Y18	Z18	X19	Y19	Z19	X20	Y20	Z20	X21	Y21	Z21	X22	Y22	Z22	X23	Y23	Z23	X24	Y24	Z24	X25	Y25	Z25	X26	Y26	Z26	X27	Y27	Z27	
450	4.49	-146.21088	887.02765	-493.7225	-420.7403	888.90955	-491.72339	-220.89926	942.82379	-282.25134	-341.00958	946.16614	-278.35626	-114.89969	428.93283	-381.63821				-478.31195	441.6745	-367.73904										-105.93456	313.9559	-362.3457	-113.49783	389.32959	-372.56808	-451.86868	56.673206	-360.90506				-474.66498	313.75436	-386.11639	-481.23596	409.51633	-359.53748	-177.08311	24.003969	-515.60022	-189.44304	20.941704	-304.15448	-136.12228	20.353458	-495.3147				-416.28799	21.654057	-523.72253	-402.67679	29.742504	-312.61038	-453.66425	19.278948	-497.27393				-293.80518	1310.0255	-474.9184	-427.71594	1359.3607	-366.21524	-133.67303	1369.976	-401.1665
451	4.5	-146.19626	887.01239	-493.742	-420.74088	888.89203	-491.67776	-220.87357	942.8045	-282.26816	-340.9866	946.15552	-278.34637	-114.89691	428.91214	-381.62344				-478.35367	441.64999	-367.75845										-105.92194	313.94797	-362.33432	-113.49932	389.3129	-372.55795	-451.87796	56.676178	-360.90399				-474.67511	313.7475	-386.12534	-481.24518	409.53165	-359.5368	-177.08574	24.00062	-515.59625	-189.43282	20.948767	-304.14807	-136.11362	20.358826	-495.31577				-416.29211	21.654442	-523.72052	-402.73276	29.736673	-312.534	-453.66095	19.285915	-497.27438				-293.78857	1310.0217	-474.90729	-427.69617	1359.3685	-366.20343	-133.66943	1369.9532	-401.14276
452	4.51	-146.18703	886.99066	-493.75146	-420.74915	888.88422	-491.65707	-220.85324	942.77094	-282.28223	-340.95551	946.12964	-278.35202	-114.87688	428.89542	-381.60159				-478.36108	441.66214	-367.75003										-105.90506	313.93024	-362.31775	-113.46795	389.29214	-372.53821	-451.88589	56.680435	-360.89548				-474.67859	313.75662	-386.112	-481.25931	409.54031	-359.52216	-177.08569	24.011003	-515.59741	-189.43301	20.941868	-304.14301	-136.11891	20.355843	-495.31552				-416.29358	21.663532	-523.72052	-402.71948	29.735405	-312.52881	-453.65964	19.292744	-497.27298				-293.77072	1310.0051	-474.90973	-427.68771	1359.339	-366.22144	-133.67613	1369.9229	-401.09937
453	4.52	-146.1795	886.961	-493.7558	-420.76465	888.87592	-491.64194	-220.82651	942.75812	-282.29361	-340.93045	946.11957	-278.36179	-114.85207	428.89294	-381.58368				-478.32376	441.67221	-367.71213										-105.89336	313.92599	-362.29602	-113.45729	389.2785	-372.52441	-451.88934	56.686718	-360.89328				-474.67148	313.75134	-386.11206	-481.25601	409.54044	-359.53	-177.08011	24.01288	-515.59692	-189.43333	20.927402	-304.15701	-136.12206	20.362278	-495.30725				-416.2991	21.669031	-523.71844	-402.72519	29.699343	-312.52225	-453.65298	19.290663	-497.27051				-293.74426	1309.9988	-474.90512	-427.66339	1359.3306	-366.22507	-133.67714	1369.8982	-401.07126
454	4.53	-146.16669	886.94659	-493.76831	-420.76859	888.88428	-491.6604	-220.81566	942.74512	-282.31699	-340.918	946.10864	-278.3671	-114.84803	428.8819	-381.57098				-478.33627	441.68094	-367.70956										-105.88092	313.91821	-362.30533	-113.43917	389.27142	-372.5166	-451.88898	56.69838	-360.88641				-474.66678	313.75748	-386.10611	-481.25269	409.55127	-359.50916	-177.0856	24.026262	-515.59027	-189.44128	20.929392	-304.14594	-136.11142	20.358761	-495.29324				-416.29929	21.671137	-523.71271	-402.71649	29.682367	-312.5405	-453.65723	19.297945	-497.26981				-293.72049	1309.9763	-474.89713	-427.65527	1359.3202	-366.24289	-133.6916	1369.8904	-401.03745
455	4.54	-146.17863	886.94989	-493.79626	-420.76004	888.89081	-491.68262	-220.80951	942.758	-282.33521	-340.9126	946.11609	-278.37585	-114.85249	428.89105	-381.58383				-478.33481	441.68506	-367.6806										-105.88974	313.92365	-362.32288	-113.43561	389.28613	-372.53326	-451.89151	56.699654	-360.88879				-474.64825	313.74481	-386.09879	-481.24167	409.5477	-359.50793	-177.07742	24.012844	-515.59338	-189.43608	20.924437	-304.14178	-136.11049	20.358418	-495.30347				-416.30255	21.671257	-523.71588	-402.69409	29.709772	-312.52908	-453.66022	19.29792	-497.26678				-293.69376	1309.9497	-474.89331	-427.63818	1359.3201	-366.28342	-133.71788	1369.8737	-400.98889
456	4.55	-146.16743	886.96606	-493.8121	-420.73776	888.88727	-491.67529	-220.80865	942.77356	-282.33475	-340.91885	946.13196	-278.3804	-114.86488	428.90063	-381.59766				-478.3064	441.68427	-367.67303										-105.90115	313.9386	-362.33215	-113.45765	389.30264	-372.55859	-451.88913	56.702015	-360.88345				-474.63583	313.72964	-386.09613	-481.22903	409.54666	-359.49454	-177.06065	24.031881	-515.59912	-189.44128	20.917368	-304.14621	-136.09909	20.351959	-495.30487				-416.30182	21.670828	-523.70612	-402.74725	29.725433	-312.48792	-453.65631	19.294836	-497.26636				-293.66248	1309.925	-474.89865	-427.62842	1359.3181	-366.32874	-133.74747	1369.875	-400.93442
457	4.56	-146.17529	886.96606	-493.81757	-420.70554	888.88647	-491.66544	-220.81178	942.7821	-282.33905	-340.92456	946.13379	-278.38599	-114.88615	428.90887	-381.61954				-478.27527	441.69299	-367.65161										-105.93291	313.93097	-362.37167	-113.46862	389.31824	-372.57687	-451.88043	56.691509	-360.89297				-474.62753	313.71518	-386.09134	-481.21503	409.53271	-359.49704	-177.0632	24.035395	-515.60114	-189.44598	20.919693	-304.1366	-136.10866	20.353836	-495.29797				-416.31845	21.668005	-523.71307	-402.66891	29.692837	-312.61942	-453.65576	19.289686	-497.26749				-293.61423	1309.8875	-474.9108	-427.62802	1359.3185	-366.38599	-133.75842	1369.8623	-400.88916
458	4.57	-146.17441	886.97131	-493.82263	-420.69943	888.8725	-491.69342	-220.81204	942.78735	-282.32941	-340.93164	946.15039	-278.38959	-114.91931	428.91324	-381.65347				-478.28378	441.6795	-367.69855										-105.9356	313.9324	-362.39426	-113.47855	389.33521	-372.61243	-451.86938	56.691425	-360.88931				-474.6069	313.71075	-386.08469	-481.18665	409.52548	-359.49786	-177.04063	24.023739	-515.60278	-189.45564	20.921574	-304.12692	-136.103	20.346302	-495.29376				-416.31232	21.657194	-523.70844	-402.69537	29.726522	-312.55981	-453.66095	19.284298	-497.26593				-293.58783	1309.8774	-474.92133	-427.60382	1359.3127	-366.44083	-133.77898	1369.8489	-400.85571
